<?xml version="1.0" encoding="UTF-8" standalone="no"?>
<!DOCTYPE svg PUBLIC "-//W3C//DTD SVG 1.1//EN"
 "http://www.w3.org/Graphics/SVG/1.1/DTD/svg11.dtd">
<!-- Generated by graphviz version 2.40.1 (20161225.0304)
 -->
<!-- Title: workflow Pages: 1 -->
<svg width="266pt" height="457pt"
 viewBox="0.00 0.00 265.50 456.74" xmlns="http://www.w3.org/2000/svg" xmlns:xlink="http://www.w3.org/1999/xlink">
<g id="graph0" class="graph" transform="scale(1 1) rotate(0) translate(4 452.7391)">
<title>workflow</title>
<!-- initial -->
<g id="node1" class="node">
<title>initial</title>
<ellipse fill="#0e64ce" stroke="#0e64ce" cx="130.2254" cy="-437.9391" rx="10.8" ry="10.8"/>
</g>
<!-- 1 -->
<g id="node7" class="node">
<title>1</title>
<polygon fill="#bfbfbf" stroke="#000000" points="191.7254,-391.1391 68.7254,-391.1391 68.7254,-355.1391 191.7254,-355.1391 191.7254,-391.1391"/>
<text text-anchor="start" x="76.7254" y="-370.3391" font-family="Arial" font-size="16.00" fill="#000000">requestValues</text>
<text text-anchor="start" x="179.7254" y="-370.3391" font-family="Arial" font-size="10.00" fill="#0000ff"> </text>
</g>
<!-- initial&#45;&gt;1 -->
<g id="edge1" class="edge">
<title>initial&#45;&gt;1</title>
<path fill="none" stroke="#000000" d="M130.2254,-426.9467C130.2254,-419.9393 130.2254,-410.5138 130.2254,-401.5099"/>
<polygon fill="#000000" stroke="#000000" points="133.7255,-401.3039 130.2254,-391.304 126.7255,-401.304 133.7255,-401.3039"/>
</g>
<!-- doneAlice -->
<g id="node2" class="node">
<title>doneAlice</title>
<ellipse fill="#ffffff" stroke="#000000" cx="62.2254" cy="-155.9848" rx="62.4516" ry="18.2703"/>
<text text-anchor="middle" x="62.2254" y="-152.1848" font-family="Arial" font-size="16.00" fill="#000000">doneAlice</text>
</g>
<!-- 4 -->
<g id="node10" class="node">
<title>4</title>
<polygon fill="#bfbfbf" stroke="#000000" points="191.2254,-101.6 71.2254,-101.6 71.2254,-65.6 191.2254,-65.6 191.2254,-101.6"/>
<text text-anchor="start" x="79.2254" y="-80.8" font-family="Arial" font-size="16.00" fill="#000000">calculateTotal</text>
<text text-anchor="start" x="179.2254" y="-80.8" font-family="Arial" font-size="10.00" fill="#0000ff"> </text>
</g>
<!-- doneAlice&#45;&gt;4 -->
<g id="edge8" class="edge">
<title>doneAlice&#45;&gt;4</title>
<path fill="none" stroke="#000000" d="M79.2816,-138.0919C87.5949,-129.3708 97.742,-118.7259 106.8546,-109.1663"/>
<polygon fill="#000000" stroke="#000000" points="109.5197,-111.4431 113.8862,-101.7898 104.4529,-106.6132 109.5197,-111.4431"/>
</g>
<!-- doneBob -->
<g id="node3" class="node">
<title>doneBob</title>
<ellipse fill="#ffffff" stroke="#000000" cx="200.2254" cy="-155.9848" rx="57.0522" ry="18.2703"/>
<text text-anchor="middle" x="200.2254" y="-152.1848" font-family="Arial" font-size="16.00" fill="#000000">doneBob</text>
</g>
<!-- doneBob&#45;&gt;4 -->
<g id="edge9" class="edge">
<title>doneBob&#45;&gt;4</title>
<path fill="none" stroke="#000000" d="M183.1692,-138.0919C174.8559,-129.3708 164.7087,-118.7259 155.5962,-109.1663"/>
<polygon fill="#000000" stroke="#000000" points="157.9979,-106.6132 148.5646,-101.7898 152.9311,-111.4431 157.9979,-106.6132"/>
</g>
<!-- todoAlice -->
<g id="node4" class="node">
<title>todoAlice</title>
<ellipse fill="#ffffff" stroke="#000000" cx="65.2254" cy="-300.7543" rx="58.8803" ry="18.2703"/>
<text text-anchor="middle" x="65.2254" y="-296.9543" font-family="Arial" font-size="16.00" fill="#000000">todoAlice</text>
</g>
<!-- 2 -->
<g id="node8" class="node">
<title>2</title>
<polygon fill="#bfbfbf" stroke="#000000" points="123.7254,-246.3696 6.7254,-246.3696 6.7254,-210.3696 123.7254,-210.3696 123.7254,-246.3696"/>
<text text-anchor="start" x="14.7254" y="-229.5696" font-family="Arial" font-size="16.00" fill="#000000">setValueAlice</text>
<text text-anchor="start" x="111.7254" y="-229.5696" font-family="Arial" font-size="10.00" fill="#0000ff"> </text>
<text text-anchor="start" x="41.2254" y="-218.3696" font-family="Arial" font-size="10.00" fill="#0000ff">roles: alice</text>
</g>
<!-- todoAlice&#45;&gt;2 -->
<g id="edge4" class="edge">
<title>todoAlice&#45;&gt;2</title>
<path fill="none" stroke="#000000" d="M65.2254,-282.1135C65.2254,-274.4556 65.2254,-265.4146 65.2254,-256.9544"/>
<polygon fill="#000000" stroke="#000000" points="68.7255,-256.6966 65.2254,-246.6967 61.7255,-256.6967 68.7255,-256.6966"/>
</g>
<!-- todoBob -->
<g id="node5" class="node">
<title>todoBob</title>
<ellipse fill="#ffffff" stroke="#000000" cx="196.2254" cy="-300.7543" rx="54.3945" ry="18.2703"/>
<text text-anchor="middle" x="196.2254" y="-296.9543" font-family="Arial" font-size="16.00" fill="#000000">todoBob</text>
</g>
<!-- 3 -->
<g id="node9" class="node">
<title>3</title>
<polygon fill="#bfbfbf" stroke="#000000" points="253.7254,-246.3696 142.7254,-246.3696 142.7254,-210.3696 253.7254,-210.3696 253.7254,-246.3696"/>
<text text-anchor="start" x="150.7254" y="-229.5696" font-family="Arial" font-size="16.00" fill="#000000">setValueBob</text>
<text text-anchor="start" x="241.7254" y="-229.5696" font-family="Arial" font-size="10.00" fill="#0000ff"> </text>
<text text-anchor="start" x="176.7254" y="-218.3696" font-family="Arial" font-size="10.00" fill="#0000ff">roles: bob</text>
</g>
<!-- todoBob&#45;&gt;3 -->
<g id="edge6" class="edge">
<title>todoBob&#45;&gt;3</title>
<path fill="none" stroke="#000000" d="M196.7404,-282.1135C196.952,-274.4556 197.2018,-265.4146 197.4356,-256.9544"/>
<polygon fill="#000000" stroke="#000000" points="200.9414,-256.7896 197.719,-246.6967 193.9441,-256.5962 200.9414,-256.7896"/>
</g>
<!-- terminal -->
<g id="node6" class="node">
<title>terminal</title>
<ellipse fill="#d11010" stroke="#d11010" cx="131.2254" cy="-14.8" rx="10.8" ry="10.8"/>
<ellipse fill="none" stroke="#d11010" cx="131.2254" cy="-14.8" rx="14.8" ry="14.8"/>
</g>
<!-- 1&#45;&gt;todoAlice -->
<g id="edge2" class="edge">
<title>1&#45;&gt;todoAlice</title>
<path fill="none" stroke="#000000" d="M113.8232,-354.8734C106.0663,-346.2353 96.6728,-335.7745 88.2199,-326.3612"/>
<polygon fill="#000000" stroke="#000000" points="90.6827,-323.8654 81.3972,-318.7635 85.4744,-328.5424 90.6827,-323.8654"/>
</g>
<!-- 1&#45;&gt;todoBob -->
<g id="edge3" class="edge">
<title>1&#45;&gt;todoBob</title>
<path fill="none" stroke="#000000" d="M146.88,-354.8734C154.7561,-346.2353 164.2942,-335.7745 172.8772,-326.3612"/>
<polygon fill="#000000" stroke="#000000" points="175.6534,-328.5111 179.8048,-318.7635 170.4808,-323.7948 175.6534,-328.5111"/>
</g>
<!-- 2&#45;&gt;doneAlice -->
<g id="edge5" class="edge">
<title>2&#45;&gt;doneAlice</title>
<path fill="none" stroke="#000000" d="M64.4684,-210.1038C64.1475,-202.3623 63.766,-193.1567 63.4094,-184.5533"/>
<polygon fill="#000000" stroke="#000000" points="66.9038,-184.3429 62.9926,-174.4964 59.9098,-184.6328 66.9038,-184.3429"/>
</g>
<!-- 3&#45;&gt;doneBob -->
<g id="edge7" class="edge">
<title>3&#45;&gt;doneBob</title>
<path fill="none" stroke="#000000" d="M198.7301,-210.1038C198.944,-202.3623 199.1983,-193.1567 199.436,-184.5533"/>
<polygon fill="#000000" stroke="#000000" points="202.9363,-184.5893 199.7139,-174.4964 195.939,-184.3959 202.9363,-184.5893"/>
</g>
<!-- 4&#45;&gt;terminal -->
<g id="edge10" class="edge">
<title>4&#45;&gt;terminal</title>
<path fill="none" stroke="#000000" d="M131.2254,-65.5236C131.2254,-57.6854 131.2254,-48.3753 131.2254,-39.8842"/>
<polygon fill="#000000" stroke="#000000" points="134.7255,-39.7391 131.2254,-29.7392 127.7255,-39.7392 134.7255,-39.7391"/>
</g>
</g>
</svg>
